<svg width="32" height="32" viewBox="0 0 32 32" fill="none" xmlns="http://www.w3.org/2000/svg">
<path d="M28.8139 16.4295C28.8672 16.373 28.904 16.2963 28.904 16.2098C28.904 16.1234 28.8672 16.0467 28.8139 15.9934C28.7574 15.9337 28.681 15.9005 28.5977 15.9005C28.5114 15.9005 28.4346 15.9337 28.378 15.9902C28.3215 16.0468 28.2884 16.1234 28.2884 16.2098C28.2884 16.2963 28.3215 16.373 28.378 16.4295C28.4346 16.4894 28.5114 16.5225 28.5977 16.5225C28.681 16.5225 28.7574 16.4894 28.8139 16.4295ZM29.1236 15.6872C29.2533 15.827 29.3365 16.0102 29.3365 16.2098C29.3365 16.4162 29.25 16.6024 29.1168 16.7389L29.1103 16.7457C28.9771 16.8754 28.7941 16.9553 28.5977 16.9553C28.3914 16.9553 28.2052 16.8721 28.0719 16.7388L28.0651 16.7323C27.9354 16.5958 27.8555 16.4129 27.8555 16.2097C27.8555 16.0069 27.9387 15.8204 28.0719 15.6807L28.0784 15.674C28.2116 15.5442 28.3979 15.4609 28.5977 15.4609C28.7973 15.4609 28.9839 15.5477 29.1168 15.6807L29.1236 15.6872Z" fill="#2B31BE"/>
<path d="M25.5169 4.41671C25.6199 4.47988 25.6531 4.61316 25.5933 4.7196C25.5736 4.75288 25.5468 4.77955 25.5169 4.7961L24.7282 5.25538C24.6249 5.31533 24.4952 5.28199 24.4353 5.17555C24.3752 5.07238 24.4119 4.93588 24.5117 4.87933L24.9778 4.60649L24.5117 4.33694C24.4119 4.27694 24.3752 4.14388 24.4353 4.04066C24.4952 3.93421 24.6248 3.89749 24.7282 3.96071L25.5169 4.41671Z" fill="#2B31BE"/>
<path d="M21.9178 26.7266C22.0377 26.7266 22.1375 26.8263 22.1375 26.9459C22.1375 27.0694 22.0377 27.1656 21.9178 27.1656H20.7962C20.6767 27.1656 20.5801 27.0694 20.5801 26.9459C20.5801 26.8263 20.6766 26.7266 20.7962 26.7266H21.9178Z" fill="#2B31BE"/>
<path d="M21.1667 27.3203C21.2899 27.3203 21.3863 27.4165 21.3863 27.5365C21.3863 27.6564 21.2899 27.7558 21.1667 27.7558H18.7672C18.6473 27.7558 18.5508 27.6564 18.5508 27.5365C18.5508 27.4165 18.6473 27.3203 18.7672 27.3203H21.1667Z" fill="#2B31BE"/>
<path d="M8.36518 3.65929C8.39507 3.77907 8.32518 3.89557 8.21212 3.9289L7.82929 4.03207C7.71296 4.06523 7.59301 3.99534 7.56307 3.87884C7.52962 3.76251 7.59946 3.64257 7.71612 3.61268L8.10223 3.50951C8.21535 3.4729 8.33168 3.54606 8.36518 3.65929Z" fill="#2B31BE"/>
<path d="M7.40784 4.7075L7.30806 4.32805C7.27784 4.20828 7.34445 4.09178 7.45756 4.06189C7.57423 4.03178 7.69056 4.09844 7.72728 4.21817L7.82706 4.59433C7.85695 4.71411 7.78706 4.83061 7.674 4.8605C7.55767 4.89044 7.43773 4.824 7.40784 4.7075Z" fill="#2B31BE"/>
<path d="M7.52939 3.48259C7.55961 3.5957 7.49295 3.71547 7.37634 3.74875C7.26322 3.77886 7.14367 3.70875 7.11339 3.59247L7.01689 3.22636C6.987 3.10986 7.05361 2.99336 7.17028 2.96003C7.28339 2.93014 7.40295 3.00003 7.43289 3.11653L7.52939 3.48259Z" fill="#2B31BE"/>
<path d="M7.12893 25.2758C7.23193 25.1724 7.37498 25.1094 7.5316 25.1094C7.68793 25.1094 7.83448 25.1724 7.93754 25.2758C8.04054 25.3824 8.10721 25.5253 8.10721 25.6885C8.10721 25.8481 8.0406 25.9914 7.93754 26.0977C7.83454 26.2007 7.68793 26.2641 7.5316 26.2641C7.37498 26.2641 7.23193 26.2007 7.12893 26.0977C7.0256 25.9914 6.95898 25.8481 6.95898 25.6885C6.95898 25.5253 7.0256 25.3824 7.12893 25.2758ZM7.43154 25.7883C7.45815 25.8149 7.49165 25.8315 7.5316 25.8315C7.56798 25.8315 7.60471 25.8149 7.6346 25.7883C7.65798 25.7617 7.6746 25.7249 7.6746 25.6885C7.6746 25.6485 7.65804 25.6118 7.6346 25.5884C7.60471 25.5618 7.56798 25.5455 7.5316 25.5455C7.4916 25.5455 7.45815 25.5618 7.43154 25.5884C7.40843 25.6118 7.39187 25.6485 7.39187 25.6885C7.39187 25.7249 7.40843 25.7617 7.43154 25.7883Z" fill="#2B31BE"/>
<path d="M7.28959 3.94931C7.31948 4.06581 7.24959 4.18553 7.13653 4.21547L6.7407 4.32203C6.62725 4.35536 6.5077 4.28531 6.47775 4.16897C6.44753 4.05247 6.51742 3.93275 6.63081 3.89936L7.02664 3.7962C7.13975 3.76631 7.25642 3.83281 7.28959 3.94931Z" fill="#2B31BE"/>
<path d="M16.1225 5.00626C13.2004 5.00626 10.5514 6.20431 8.63785 8.14115C6.71779 10.0747 5.53285 12.7471 5.53285 15.7023C5.53285 18.6574 6.71779 21.3299 8.63785 23.2668C10.5514 25.2002 13.2004 26.3984 16.1225 26.3984C19.0477 26.3984 21.6967 25.2002 23.6103 23.2668C25.5271 21.3299 26.7153 18.6574 26.7153 15.7023C26.7153 12.7471 25.5271 10.0747 23.6103 8.14115C21.6967 6.20431 19.0477 5.00626 16.1225 5.00626ZM8.32846 23.5762C6.33496 21.5593 5.10352 18.7774 5.10352 15.7023C5.10352 12.6306 6.33496 9.84848 8.32846 7.82837C10.3252 5.81503 13.0776 4.57031 16.1225 4.57031C19.1676 4.57031 21.9229 5.81503 23.9197 7.82837C25.9132 9.84853 27.1446 12.6306 27.1446 15.7023C27.1446 18.7774 25.9132 21.5593 23.9197 23.5762C21.923 25.5895 19.1676 26.8375 16.1225 26.8375C13.0776 26.8375 10.3252 25.5895 8.32846 23.5762Z" fill="#2B31BE"/>
<path d="M3.90721 15.6562L4.02388 16.049L3.61116 16.1721L3.49805 15.7829L3.90721 15.6562Z" fill="#2B31BE"/>
<path d="M3.61194 16.1797L3.72827 16.5723L3.31911 16.6955L3.19922 16.3061L3.61194 16.1797Z" fill="#2B31BE"/>
<path d="M3.38114 15.3906L3.49781 15.7834L3.08186 15.9062L2.96875 15.517L3.38114 15.3906Z" fill="#2B31BE"/>
<path d="M3.0827 15.9062L3.19576 16.2991L2.78631 16.4223L2.66992 16.033L3.0827 15.9062Z" fill="#2B31BE"/>
<rect width="32" height="32" rx="7" fill="#2B31BE" fill-opacity="0.04"/>
</svg>
