<svg width="909" height="249" viewBox="0 0 909 249" fill="none" xmlns="http://www.w3.org/2000/svg">
<mask id="mask0_2071_86" style="mask-type:luminance" maskUnits="userSpaceOnUse" x="0" y="0" width="909" height="249">
<path d="M908.257 0H0V248.342H908.257V0Z" fill="white"/>
</mask>
<g mask="url(#mask0_2071_86)">
<path d="M101.007 66.9267C116.119 66.9267 128.369 54.6763 128.369 39.5648C128.369 24.4533 116.119 12.2031 101.007 12.2031C85.8957 12.2031 73.6455 24.4533 73.6455 39.5648C73.6455 54.6763 85.8957 66.9267 101.007 66.9267Z" fill="white"/>
<path d="M60.4798 173.846C68.0355 173.846 74.1605 167.721 74.1605 160.165C74.1605 152.609 68.0355 146.484 60.4798 146.484C52.9241 146.484 46.7988 152.609 46.7988 160.165C46.7988 167.721 52.9241 173.846 60.4798 173.846Z" fill="white"/>
<path d="M156.631 242.025C164.187 242.025 170.312 235.901 170.312 228.345C170.312 220.789 164.187 214.664 156.631 214.664C149.075 214.664 142.95 220.789 142.95 228.345C142.95 235.901 149.075 242.025 156.631 242.025Z" fill="white"/>
<path d="M112.262 92.1558C119.062 92.1558 124.574 86.6434 124.574 79.8434C124.574 73.0436 119.062 67.5312 112.262 67.5312C105.462 67.5312 99.9497 73.0436 99.9497 79.8434C99.9497 86.6434 105.462 92.1558 112.262 92.1558Z" fill="white"/>
<path d="M163.741 166.511C171.903 166.511 178.52 159.895 178.52 151.732C178.52 143.57 171.903 136.953 163.741 136.953C155.579 136.953 148.962 143.57 148.962 151.732C148.962 159.895 155.579 166.511 163.741 166.511Z" fill="white"/>
<path d="M189.012 40.6662C195.678 40.6662 201.393 36.8086 204.202 31.2348C195.824 23.7568 186.435 17.3938 176.25 12.3828C173.603 15.3877 171.942 19.2895 171.942 23.608C171.942 33.0339 179.586 40.6662 189.012 40.6662Z" fill="white"/>
<path d="M157.544 100.662C174.668 100.662 188.55 86.7799 188.55 69.6553C188.55 52.5305 174.668 38.6484 157.544 38.6484C140.419 38.6484 126.537 52.5305 126.537 69.6553C126.537 86.7799 140.419 100.662 157.544 100.662Z" fill="white"/>
<path d="M243.163 149.391C242.408 153.033 241.484 156.612 240.413 160.133C241.941 156.822 242.895 153.207 243.163 149.391Z" fill="white"/>
<path d="M212.267 116.164C195.139 116.164 181.26 130.046 181.26 147.176C181.26 164.298 195.139 178.186 212.267 178.186C224.761 178.186 235.507 170.772 240.408 160.121C241.479 156.602 242.404 153.024 243.158 149.379C243.211 148.647 243.271 147.922 243.271 147.174C243.273 130.046 229.388 116.164 212.267 116.164Z" fill="white"/>
<path d="M33.7413 77.2827C33.7413 67.0206 26.9092 58.4419 17.5854 55.5859C9.3542 68.0582 3.31399 82.0979 0 97.1667C3.25881 98.9658 6.95358 100.083 10.9408 100.083C23.5289 100.083 33.7413 89.8763 33.7413 77.2827Z" fill="white"/>
<path d="M182.392 219.554C194.985 219.554 205.193 209.346 205.193 196.754C205.193 184.161 194.985 173.953 182.392 173.953C169.8 173.953 159.592 184.161 159.592 196.754C159.592 209.346 169.8 219.554 182.392 219.554Z" fill="white"/>
<path d="M145.842 35.0741C157.426 35.0741 166.813 25.6842 166.813 14.0975C166.813 11.89 166.38 9.8095 165.748 7.81172C154.642 3.56784 142.771 0.885752 130.398 0C126.996 3.73339 124.866 8.65057 124.866 14.0975C124.866 25.6842 134.253 35.0741 145.842 35.0741Z" fill="white"/>
<path d="M22.578 179.102C34.1591 179.102 43.549 169.712 43.549 158.125C43.549 146.547 34.1591 137.148 22.578 137.148C11.2095 137.148 2.00979 146.207 1.66211 157.488C2.98383 162.231 4.56771 166.861 6.42475 171.359C10.2713 176.053 16.0383 179.102 22.578 179.102Z" fill="white"/>
<path d="M49.0214 143.635C55.8503 143.635 61.3861 138.1 61.3861 131.271C61.3861 124.442 55.8503 118.906 49.0214 118.906C42.1927 118.906 36.6567 124.442 36.6567 131.271C36.6567 138.1 42.1927 143.635 49.0214 143.635Z" fill="white"/>
<path d="M93.3085 230.159C93.3085 223.332 87.7704 217.797 80.9465 217.797C74.1144 217.797 68.5791 223.335 68.5791 230.159C68.5791 233.052 69.6137 235.678 71.2805 237.783C75.1298 239.481 79.0784 240.994 83.1236 242.302C88.9046 241.272 93.3085 236.244 93.3085 230.159Z" fill="white"/>
<path d="M20.6821 132.473C29.5242 132.473 36.6918 125.305 36.6918 116.463C36.6918 107.621 29.5242 100.453 20.6821 100.453C11.8402 100.453 4.67236 107.621 4.67236 116.463C4.67236 125.305 11.8402 132.473 20.6821 132.473Z" fill="white"/>
<path d="M57.3763 90.7165C68.963 90.7165 78.3557 81.3239 78.3557 69.7372C78.3557 58.1507 68.963 48.7578 57.3763 48.7578C45.7899 48.7578 36.397 58.1507 36.397 69.7372C36.397 81.3239 45.7899 90.7165 57.3763 90.7165Z" fill="white"/>
<path d="M156.226 183.945C156.138 161.542 137.896 143.443 115.493 143.532C93.081 143.62 74.9852 161.854 75.079 184.26C75.1618 206.674 93.4012 224.764 115.807 224.676C138.216 224.59 156.315 206.356 156.226 183.945Z" fill="white"/>
<path d="M208.445 35.2109C199.416 43.8034 193.776 55.9226 193.826 69.3745C193.93 95.3096 215.034 116.253 240.97 116.151C242.486 116.148 243.993 116.052 245.475 115.908C243.442 84.355 229.665 56.0137 208.445 35.2109Z" fill="white"/>
<path d="M178.476 102.945C171.674 102.973 166.188 108.506 166.213 115.307C166.24 122.101 171.773 127.595 178.575 127.573C185.371 127.542 190.857 122.004 190.832 115.202C190.813 108.406 185.274 102.921 178.476 102.945Z" fill="white"/>
<path d="M50.0827 109.719C54.1104 109.719 57.3756 106.453 57.3756 102.426C57.3756 98.3979 54.1104 95.1328 50.0827 95.1328C46.0549 95.1328 42.7896 98.3979 42.7896 102.426C42.7896 106.453 46.0549 109.719 50.0827 109.719Z" fill="white"/>
<path d="M87.5835 139.314C101.991 139.314 113.67 127.635 113.67 113.228C113.67 98.8202 101.991 87.1406 87.5835 87.1406C73.1762 87.1406 61.4966 98.8202 61.4966 113.228C61.4966 127.635 73.1762 139.314 87.5835 139.314Z" fill="white"/>
<path d="M68.8685 16.7432C68.863 14.9607 68.6754 13.2167 68.3277 11.5391C53.822 18.3988 40.8585 27.9766 30.0942 39.6238C33.8828 41.7373 38.2399 42.9516 42.8839 42.9323C57.2931 42.8743 68.9266 31.1442 68.8685 16.7432Z" fill="white"/>
<path d="M72.6311 203.412C72.5706 189.008 60.846 177.377 46.4421 177.43C34.1217 177.482 23.8568 186.072 21.1665 197.551C30.1399 209.761 41.2933 220.255 54.0497 228.494C64.8304 225.255 72.6727 215.247 72.6311 203.412Z" fill="white"/>
<path d="M137.468 141.763C149.055 141.763 158.447 132.371 158.447 120.784C158.447 109.198 149.055 99.8047 137.468 99.8047C125.881 99.8047 116.489 109.198 116.489 120.784C116.489 132.371 125.881 141.763 137.468 141.763Z" fill="white"/>
<path d="M118.701 228.391C108.185 228.435 99.5018 236.055 97.7192 246.055C105.396 247.535 113.315 248.338 121.419 248.338C127.711 248.338 133.891 247.86 139.935 246.959C138.514 236.457 129.587 228.352 118.701 228.391Z" fill="white"/>
<path d="M394.22 183.937L362.401 139.537C366.677 138.222 370.459 136.66 373.748 134.851C377.365 132.549 380.323 130 382.626 127.205C385.257 124.081 387.149 120.709 388.3 117.092C389.78 113.145 390.521 108.705 390.521 103.772C390.521 98.0168 389.532 92.837 387.56 88.2324C385.587 83.7925 382.709 79.9285 378.927 76.6395C375.31 73.5152 370.704 71.0485 365.115 69.2397C359.358 67.431 353.275 66.5264 346.86 66.5264H294.569V85.2723H345.133C352.862 85.2723 358.865 86.9168 363.14 90.2056C367.415 93.4941 369.553 98.4271 369.553 105.005C369.553 111.089 367.415 115.858 363.14 119.311C358.865 122.929 352.945 124.738 345.381 124.738H294.569V183.936H315.041V142.99H340.94L369.798 183.936L394.22 183.937ZM426.78 66.5276H514.589V85.2737H426.78V66.5276ZM426.78 165.191H514.342V183.937H426.78V165.191ZM426.78 115.367H505.956V133.866H426.78V115.367ZM556.028 66.5276H576.252V165.191H637.917V183.937H556.025L556.028 66.5276ZM733.619 115.367V66.2812H712.901V184.184H733.619V115.367ZM841.163 165.191C838.697 164.698 836.394 163.958 834.257 162.971C829.654 160.833 825.624 157.873 822.172 154.091C818.883 150.638 816.252 146.363 814.278 141.265C812.47 136.167 811.564 130.988 811.564 125.726V125.232V124.492C811.564 119.066 812.47 113.804 814.278 108.706C816.415 103.445 819.048 99.2512 822.172 96.1267C825.461 92.3448 829.406 89.4668 834.011 87.4936C836.807 86.1783 839.19 85.356 841.163 85.0274V66.5278C835.408 67.3501 830.312 68.7478 825.872 70.7209C818.635 73.8455 812.47 78.0386 807.372 83.3005C802.273 88.5627 798.245 94.8113 795.284 102.046C792.326 109.281 790.846 116.846 790.846 124.739V125.232V125.972C790.846 134.03 792.326 141.594 795.284 148.665C797.917 155.736 801.862 161.902 807.126 167.164C812.388 172.591 818.553 176.784 825.624 179.744C830.064 181.717 835.243 183.115 841.163 183.937V165.191ZM908.255 125.233V124.493C908.255 116.435 906.775 108.871 903.814 101.8C900.855 94.565 896.826 88.3163 891.729 83.0544C886.796 77.7927 880.711 73.6813 873.477 70.7214C869.365 68.7482 864.351 67.3505 858.431 66.5283V85.2744L861.39 86.2608C862.869 86.7542 864.021 87.1654 864.844 87.4941C869.447 89.6319 873.477 92.5918 876.929 96.3739C880.218 99.8271 882.849 104.102 884.823 109.2C886.631 114.298 887.537 119.477 887.537 124.74V125.233V125.973C887.537 131.399 886.631 136.661 884.823 141.759C882.686 147.021 880.053 151.214 876.929 154.339C873.64 158.12 869.695 160.998 865.089 162.972C862.952 163.958 860.732 164.698 858.429 165.192V183.937C863.362 183.28 868.296 181.882 873.229 179.744C879.97 176.949 886.138 172.756 891.729 167.165C897.156 161.409 901.183 155.161 903.814 148.419C906.775 141.184 908.255 133.619 908.255 125.726V125.233Z" fill="white"/>
</g>
</svg>
