<svg width="396" height="109" viewBox="0 0 396 109" fill="none" xmlns="http://www.w3.org/2000/svg">
<g clip-path="url(#clip0_14231_71792)">
<path d="M44.0391 29.1798C50.6277 29.1798 55.9688 23.8386 55.9688 17.25C55.9688 10.6614 50.6277 5.32031 44.0391 5.32031C37.4505 5.32031 32.1094 10.6614 32.1094 17.25C32.1094 23.8386 37.4505 29.1798 44.0391 29.1798Z" fill="#2B31BE"/>
<path d="M26.3692 75.7969C29.6635 75.7969 32.334 73.1264 32.334 69.832C32.334 66.5377 29.6635 63.8672 26.3692 63.8672C23.0749 63.8672 20.4043 66.5377 20.4043 69.832C20.4043 73.1264 23.0749 75.7969 26.3692 75.7969Z" fill="#2B31BE"/>
<path d="M68.291 105.523C71.5853 105.523 74.2559 102.853 74.2559 99.5586C74.2559 96.2643 71.5853 93.5938 68.291 93.5938C64.9967 93.5938 62.3262 96.2643 62.3262 99.5586C62.3262 102.853 64.9967 105.523 68.291 105.523Z" fill="#2B31BE"/>
<path d="M48.9463 40.1816C51.911 40.1816 54.3144 37.7782 54.3144 34.8134C54.3144 31.8487 51.911 29.4453 48.9463 29.4453C45.9815 29.4453 43.5781 31.8487 43.5781 34.8134C43.5781 37.7782 45.9815 40.1816 48.9463 40.1816Z" fill="#2B31BE"/>
<path d="M71.391 72.5983C74.9497 72.5983 77.8346 69.7134 77.8346 66.1546C77.8346 62.5959 74.9497 59.7109 71.391 59.7109C67.8322 59.7109 64.9473 62.5959 64.9473 66.1546C64.9473 69.7134 67.8322 72.5983 71.391 72.5983Z" fill="#2B31BE"/>
<path d="M82.409 17.73C85.3157 17.73 87.8073 16.0481 89.032 13.6179C85.3794 10.3575 81.2854 7.58323 76.8448 5.39844C75.691 6.70859 74.9668 8.40974 74.9668 10.2926C74.9668 14.4023 78.2993 17.73 82.409 17.73Z" fill="#2B31BE"/>
<path d="M68.6889 43.8895C76.1552 43.8895 82.2079 37.8369 82.2079 30.3706C82.2079 22.9042 76.1552 16.8516 68.6889 16.8516C61.2226 16.8516 55.1699 22.9042 55.1699 30.3706C55.1699 37.8369 61.2226 43.8895 68.6889 43.8895Z" fill="#2B31BE"/>
<path d="M106.019 65.1328C105.69 66.7209 105.287 68.2813 104.82 69.8164C105.486 68.3727 105.902 66.7967 106.019 65.1328Z" fill="#2B31BE"/>
<path d="M92.5483 50.6484C85.0808 50.6484 79.0293 56.7011 79.0293 64.1698C79.0293 71.6349 85.0808 77.69 92.5483 77.69C97.9958 77.69 102.681 74.4573 104.818 69.8135C105.285 68.2795 105.688 66.7192 106.017 65.1299C106.04 64.8111 106.066 64.4947 106.066 64.1686C106.067 56.7011 100.013 50.6484 92.5483 50.6484Z" fill="#2B31BE"/>
<path d="M14.7112 33.6942C14.7112 29.2199 11.7324 25.4796 7.66722 24.2344C4.07843 29.6723 1.4449 35.7936 0 42.3636C1.42084 43.148 3.03176 43.6352 4.7702 43.6352C10.2586 43.6352 14.7112 39.185 14.7112 33.6942Z" fill="#2B31BE"/>
<path d="M79.5231 95.7258C85.0134 95.7258 89.4641 91.2751 89.4641 85.7848C89.4641 80.2945 85.0134 75.8438 79.5231 75.8438C74.0328 75.8438 69.582 80.2945 69.582 85.7848C69.582 91.2751 74.0328 95.7258 79.5231 95.7258Z" fill="#2B31BE"/>
<path d="M63.5872 15.2923C68.6377 15.2923 72.7306 11.1983 72.7306 6.14653C72.7306 5.18406 72.5417 4.27694 72.2662 3.40591C67.4238 1.55558 62.2482 0.386188 56.8536 0C55.3702 1.62776 54.4414 3.77165 54.4414 6.14653C54.4414 11.1983 58.5343 15.2923 63.5872 15.2923Z" fill="#2B31BE"/>
<path d="M9.84394 78.0885C14.8933 78.0885 18.9873 73.9944 18.9873 68.9427C18.9873 63.8946 14.8933 59.7969 9.84394 59.7969C4.88726 59.7969 0.876197 63.7466 0.724609 68.6648C1.30088 70.7329 1.99145 72.7516 2.80112 74.7126C4.47821 76.7591 6.99265 78.0885 9.84394 78.0885Z" fill="#2B31BE"/>
<path d="M21.3734 62.6257C24.3508 62.6257 26.7644 60.2121 26.7644 57.2347C26.7644 54.2574 24.3508 51.8438 21.3734 51.8438C18.3961 51.8438 15.9824 54.2574 15.9824 57.2347C15.9824 60.2121 18.3961 62.6257 21.3734 62.6257Z" fill="#2B31BE"/>
<path d="M40.6824 100.351C40.6824 97.3743 38.2678 94.9609 35.2926 94.9609C32.3138 94.9609 29.9004 97.3755 29.9004 100.351C29.9004 101.612 30.3515 102.757 31.0782 103.675C32.7565 104.415 34.4781 105.075 36.2418 105.645C38.7623 105.196 40.6824 103.004 40.6824 100.351Z" fill="#2B31BE"/>
<path d="M9.01737 57.7574C12.8725 57.7574 15.9976 54.6322 15.9976 50.7771C15.9976 46.922 12.8725 43.7969 9.01737 43.7969C5.16228 43.7969 2.03711 46.922 2.03711 50.7771C2.03711 54.6322 5.16228 57.7574 9.01737 57.7574Z" fill="#2B31BE"/>
<path d="M25.0161 39.5518C30.0679 39.5518 34.1631 35.4566 34.1631 30.4048C34.1631 25.3531 30.0679 21.2578 25.0161 21.2578C19.9644 21.2578 15.8691 25.3531 15.8691 30.4048C15.8691 35.4566 19.9644 39.5518 25.0161 39.5518Z" fill="#2B31BE"/>
<path d="M68.1147 80.1986C68.0762 70.4308 60.1226 62.5398 50.3548 62.5783C40.5834 62.6168 32.6936 70.5667 32.7345 80.3357C32.7706 90.1083 40.723 97.9957 50.492 97.9572C60.2622 97.9199 68.1532 89.9699 68.1147 80.1986Z" fill="#2B31BE"/>
<path d="M90.8819 15.3516C86.9454 19.0979 84.4863 24.3819 84.508 30.2469C84.5537 41.5546 93.7548 50.686 105.063 50.6414C105.724 50.6402 106.381 50.5981 107.027 50.5356C106.141 36.7784 100.134 24.4216 90.8819 15.3516Z" fill="#2B31BE"/>
<path d="M77.8153 44.8828C74.8497 44.8949 72.458 47.3071 72.4688 50.2726C72.4808 53.2346 74.893 55.6299 77.8586 55.6203C80.8218 55.6071 83.2135 53.1925 83.2027 50.2269C83.1942 47.2637 80.7796 44.872 77.8153 44.8828Z" fill="#2B31BE"/>
<path d="M21.836 47.836C23.5921 47.836 25.0157 46.4124 25.0157 44.6563C25.0157 42.9002 23.5921 41.4766 21.836 41.4766C20.0799 41.4766 18.6562 42.9002 18.6562 44.6563C18.6562 46.4124 20.0799 47.836 21.836 47.836Z" fill="#2B31BE"/>
<path d="M38.1864 60.74C44.468 60.74 49.5603 55.6477 49.5603 49.3661C49.5603 43.0845 44.468 37.9922 38.1864 37.9922C31.9048 37.9922 26.8125 43.0845 26.8125 49.3661C26.8125 55.6477 31.9048 60.74 38.1864 60.74Z" fill="#2B31BE"/>
<path d="M30.0267 7.30025C30.0243 6.52307 29.9425 5.76272 29.7909 5.03125C23.4664 8.0221 17.8143 12.198 13.1211 17.2762C14.7729 18.1977 16.6726 18.7271 18.6974 18.7187C24.9798 18.6934 30.052 13.5791 30.0267 7.30025Z" fill="#2B31BE"/>
<path d="M31.6671 88.6876C31.6407 82.4076 26.5288 77.3366 20.2487 77.3595C14.877 77.3823 10.4015 81.1275 9.22852 86.1323C13.1409 91.4559 18.0038 96.0312 23.5656 99.6236C28.266 98.2112 31.6852 93.8476 31.6671 88.6876Z" fill="#2B31BE"/>
<path d="M59.9361 61.8096C64.9878 61.8096 69.0831 57.7144 69.0831 52.6626C69.0831 47.6109 64.9878 43.5156 59.9361 43.5156C54.8843 43.5156 50.7891 47.6109 50.7891 52.6626C50.7891 57.7144 54.8843 61.8096 59.9361 61.8096Z" fill="#2B31BE"/>
<path d="M51.7537 99.5782C47.1687 99.5974 43.3827 102.92 42.6055 107.28C45.9524 107.925 49.4053 108.275 52.9387 108.275C55.6817 108.275 58.3766 108.067 61.0114 107.674C60.3918 103.095 56.4998 99.5613 51.7537 99.5782Z" fill="#2B31BE"/>
<path d="M171.88 80.1964L158.007 60.838C159.871 60.2645 161.52 59.5834 162.954 58.7948C164.531 57.7911 165.821 56.6799 166.825 55.4611C167.972 54.0989 168.797 52.6291 169.299 51.0517C169.944 49.3311 170.267 47.3952 170.267 45.2444C170.267 42.7351 169.836 40.4767 168.976 38.4691C168.116 36.5333 166.861 34.8486 165.212 33.4146C163.635 32.0524 161.627 30.9769 159.19 30.1883C156.68 29.3997 154.028 29.0053 151.231 29.0053H128.432V37.1785H150.478C153.848 37.1785 156.465 37.8955 158.329 39.3294C160.193 40.7632 161.125 42.914 161.125 45.7819C161.125 48.4347 160.193 50.5138 158.329 52.0195C156.465 53.5969 153.884 54.3855 150.586 54.3855H128.432V80.1957H137.358V62.3433H148.65L161.232 80.1957L171.88 80.1964ZM186.076 29.0058H224.361V37.1791H186.076V29.0058ZM186.076 72.0231H224.253V80.1964H186.076V72.0231ZM186.076 50.2996H220.597V58.3653H186.076V50.2996ZM242.428 29.0058H251.246V72.0229H278.132V80.1961H242.427L242.428 29.0058ZM319.858 50.2996V28.8984H310.825V80.3042H319.858V50.2996ZM366.747 72.0231C365.672 71.8081 364.668 71.4853 363.736 71.0552C361.729 70.1231 359.972 68.8326 358.467 67.1836C357.033 65.678 355.886 63.814 355.025 61.5914C354.237 59.3688 353.842 57.1105 353.842 54.8162V54.6011V54.2785C353.842 51.9125 354.237 49.6183 355.025 47.3957C355.957 45.1016 357.105 43.2733 358.467 41.911C359.901 40.2621 361.621 39.0073 363.629 38.147C364.848 37.5735 365.887 37.215 366.747 37.0717V29.0059C364.238 29.3644 362.016 29.9738 360.08 30.8341C356.925 32.1964 354.237 34.0246 352.014 36.3188C349.791 38.6131 348.035 41.3375 346.744 44.492C345.454 47.6464 344.809 50.9445 344.809 54.3859V54.601V54.9236C344.809 58.4367 345.454 61.7347 346.744 64.8177C347.892 67.9006 349.612 70.5891 351.907 72.8834C354.201 75.2494 356.889 77.0776 359.972 78.3681C361.908 79.2284 364.166 79.8378 366.747 80.1963V72.0231ZM395.999 54.6013L395.999 54.2787C395.999 50.7656 395.354 47.4675 394.063 44.3846C392.773 41.2301 391.016 38.5057 388.794 36.2115C386.643 33.9174 383.99 32.1248 380.836 30.8343C379.043 29.974 376.857 29.3646 374.276 29.0061V37.1794L375.566 37.6095C376.211 37.8246 376.713 38.0039 377.072 38.1472C379.079 39.0793 380.836 40.3698 382.341 42.0188C383.775 43.5244 384.922 45.3884 385.783 47.611C386.571 49.8336 386.966 52.0919 386.966 54.3862V54.6013V54.9239C386.966 57.2899 386.571 59.5841 385.783 61.8067C384.851 64.1008 383.703 65.9292 382.341 67.2914C380.907 68.9403 379.187 70.1951 377.179 71.0554C376.247 71.4856 375.279 71.8082 374.275 72.0233V80.1965C376.426 79.9097 378.577 79.3003 380.728 78.3682C383.667 77.1494 386.356 75.3212 388.794 72.8835C391.16 70.3742 392.916 67.6499 394.063 64.7104C395.354 61.5559 395.999 58.2578 395.999 54.8165V54.6013Z" fill="#2B31BE"/>
</g>
<defs>
<clipPath id="clip0_14231_71792">
<rect width="396" height="108.277" fill="white"/>
</clipPath>
</defs>
</svg>
